<?xml version="1.0" encoding="UTF-8" standalone="no"?><!DOCTYPE svg PUBLIC "-//W3C//DTD SVG 1.1//EN" "http://www.w3.org/Graphics/SVG/1.1/DTD/svg11.dtd"><svg width="100%" height="100%" viewBox="0 0 4000 4000" version="1.1" xmlns="http://www.w3.org/2000/svg" xmlns:xlink="http://www.w3.org/1999/xlink" xml:space="preserve" xmlns:serif="http://www.serif.com/" style="fill-rule:evenodd;clip-rule:evenodd;stroke-linejoin:round;stroke-miterlimit:2;"><rect x="0" y="0" width="4000" height="4000" style="fill:#5165f6;"/><g><circle cx="1012.12" cy="1389.28" r="219.179" style="fill:#fff;"/><circle cx="1012.12" cy="2029.48" r="219.179" style="fill:#fff;"/><circle cx="1012.12" cy="2665.46" r="219.179" style="fill:#fff;"/><path d="M3151.07,2666.52c0,-91.24 -74.075,-165.315 -165.314,-165.315l-1381.48,0c-91.239,0 -165.314,74.075 -165.314,165.315c-0,91.239 74.075,165.314 165.314,165.314l1381.48,-0c91.239,-0 165.314,-74.075 165.314,-165.314Z" style="fill:#fff;"/><path d="M2980.49,2029.48c0,-91.239 -74.074,-165.314 -165.314,-165.314l-1210.9,0c-91.239,0 -165.314,74.075 -165.314,165.314c-0,91.239 74.075,165.314 165.314,165.314l1210.9,0c91.24,0 165.314,-74.075 165.314,-165.314Z" style="fill:#fff;"/><path d="M3092.11,1389.28c-0,-91.239 -74.075,-165.314 -165.314,-165.314l-1322.51,-0c-91.239,-0 -165.314,74.075 -165.314,165.314c-0,91.239 74.075,165.314 165.314,165.314l1322.51,0c91.239,0 165.314,-74.075 165.314,-165.314Z" style="fill:#fff;"/></g></svg>