<?xml version="1.0" encoding="UTF-8" standalone="no"?>
<!DOCTYPE svg PUBLIC "-//W3C//DTD SVG 1.1//EN" "http://www.w3.org/Graphics/SVG/1.1/DTD/svg11.dtd">
<svg width="100%" height="100%" viewBox="0 0 4000 4000" version="1.1" xmlns="http://www.w3.org/2000/svg" xmlns:xlink="http://www.w3.org/1999/xlink" xml:space="preserve" xmlns:serif="http://www.serif.com/" style="fill-rule:evenodd;clip-rule:evenodd;stroke-linejoin:round;stroke-miterlimit:2;">
    <g transform="matrix(1.69626,0,0,1.69626,-1345.04,-1438.95)">
        <g transform="matrix(0.934877,0,0,0.934877,85.1078,85.0597)">
            <circle cx="991.59" cy="1395.07" r="234.447" style="fill:white;"/>
        </g>
        <g transform="matrix(0.934877,0,0,0.934877,85.1078,725.257)">
            <circle cx="991.59" cy="1395.07" r="234.447" style="fill:white;"/>
        </g>
        <g transform="matrix(0.934877,0,0,0.934877,85.1078,1361.24)">
            <circle cx="991.59" cy="1395.07" r="234.447" style="fill:white;"/>
        </g>
        <g transform="matrix(1.02522,0,0,0.94012,-47.0868,165.797)">
            <path d="M3119.48,2660C3119.48,2562.95 3047.23,2484.16 2958.24,2484.16L1610.74,2484.16C1521.75,2484.16 1449.49,2562.95 1449.49,2660C1449.49,2757.05 1521.75,2835.84 1610.74,2835.84L2958.24,2835.84C3047.23,2835.84 3119.48,2757.05 3119.48,2660Z" style="fill:white;"/>
        </g>
        <g transform="matrix(0.923077,0,0,0.94012,100.97,-471.242)">
            <path d="M3119.48,2660C3119.48,2562.95 3039.24,2484.16 2940.39,2484.16L1628.59,2484.16C1529.74,2484.16 1449.49,2562.95 1449.49,2660C1449.49,2757.05 1529.74,2835.84 1628.59,2835.84L2940.39,2835.84C3039.24,2835.84 3119.48,2757.05 3119.48,2660Z" style="fill:white;"/>
        </g>
        <g transform="matrix(0.989912,0,0,0.94012,4.09333,-1111.44)">
            <path d="M3119.48,2660C3119.48,2562.95 3044.65,2484.16 2952.48,2484.16L1616.49,2484.16C1524.32,2484.16 1449.49,2562.95 1449.49,2660C1449.49,2757.05 1524.32,2835.84 1616.49,2835.84L2952.48,2835.84C3044.65,2835.84 3119.48,2757.05 3119.48,2660Z" style="fill:white;"/>
        </g>
    </g>
</svg>
